<?xml version="1.0" standalone="no"?><!DOCTYPE svg PUBLIC "-//W3C//DTD SVG 1.1//EN" "http://www.w3.org/Graphics/SVG/1.1/DTD/svg11.dtd"><svg t="1648300935298" class="icon" viewBox="0 0 1081 1024" version="1.1" xmlns="http://www.w3.org/2000/svg" p-id="61031" width="50.671875" height="48" xmlns:xlink="http://www.w3.org/1999/xlink"><defs><style type="text/css"></style></defs><path d="M751.382087 503.585867l-7.57272-13.041906-253.686113-82.879212-7.152013 8.414133-10.938373 2.52424-225.498768 526.724733 2.944947 15.986853L792.611339 732.029581l4.627774-9.255546-37.863599-210.353328-7.993427-8.83484z" fill="#78758C" p-id="61032"></path><path d="M249.479047 961.314708l233.492194-545.235826L3.365653 259.576007l246.113394 701.738701z" fill="#A3EDBA" p-id="61033"></path><path d="M660.930156 1.26212l-177.958915 414.816762 268.410846 87.506985 1.26212-3.365653L662.612983 5.04848l-1.682827-3.78636z" fill="#8087E8" p-id="61034"></path><path d="M751.382087 503.585867l41.229252 228.443714 18.9318-0.420707 257.051767-111.487263 11.359079-9.676254-13.462613-11.359079-302.488085-101.811011-12.6212 6.3106z" fill="#30426B" p-id="61035"></path><path d="M792.611339 732.029581l52.588332 291.970419 234.754314-413.554643-287.342646 121.584224zM660.930156 1.26212l90.451931 502.323747 328.571898 106.85949L660.930156 1.26212z" fill="#6699A1" p-id="61036"></path></svg>